<svg width="212" height="41" viewBox="0 0 212 41" fill="none" xmlns="http://www.w3.org/2000/svg">
<path d="M8.7071 40.7071C8.31658 41.0976 7.68341 41.0976 7.29289 40.7071L0.928925 34.3431C0.538401 33.9526 0.538401 33.3195 0.928925 32.9289C1.31945 32.5384 1.95261 32.5384 2.34314 32.9289L7.99999 38.5858L13.6568 32.9289C14.0474 32.5384 14.6805 32.5384 15.0711 32.9289C15.4616 33.3195 15.4616 33.9526 15.0711 34.3431L8.7071 40.7071ZM212 0V0.689653H210V0H212ZM212 2.06896V2.75861H210V2.06896H212ZM212 2.75861C212 3.51025 211.951 4.25098 211.856 4.97771L209.873 4.71902C209.957 4.07784 210 3.42352 210 2.75861H212ZM210.71 9.26627C210.136 10.6489 209.386 11.939 208.487 13.1085L206.901 11.8898C207.695 10.8573 208.357 9.71909 208.862 8.50017L210.71 9.26627ZM205.35 16.2459C204.18 17.1446 202.89 17.8949 201.508 18.4683L200.742 16.6208C201.96 16.1153 203.099 15.4535 204.131 14.6601L205.35 16.2459ZM197.219 19.615C196.492 19.7098 195.752 19.7586 195 19.7586V17.7586C195.665 17.7586 196.319 17.7154 196.96 17.6318L197.219 19.615ZM195 19.7586H192.964V17.7586H195V19.7586ZM188.893 19.7586H184.821V17.7586H188.893V19.7586ZM180.75 19.7586H176.679V17.7586H180.75V19.7586ZM172.607 19.7586H168.536V17.7586H172.607V19.7586ZM164.464 19.7586H160.393V17.7586H164.464V19.7586ZM156.321 19.7586H152.25V17.7586H156.321V19.7586ZM148.179 19.7586H144.107V17.7586H148.179V19.7586ZM140.036 19.7586H135.964V17.7586H140.036V19.7586ZM131.893 19.7586H127.821V17.7586H131.893V19.7586ZM123.75 19.7586H119.679V17.7586H123.75V19.7586ZM115.607 19.7586H111.536V17.7586H115.607V19.7586ZM107.464 19.7586H103.393V17.7586H107.464V19.7586ZM99.3214 19.7586H95.25V17.7586H99.3214V19.7586ZM91.1786 19.7586H87.1072V17.7586H91.1786V19.7586ZM83.0357 19.7586H78.9643V17.7586H83.0357V19.7586ZM74.8929 19.7586H70.8215V17.7586H74.8929V19.7586ZM66.75 19.7586H62.6786V17.7586H66.75V19.7586ZM58.6072 19.7586H54.5357V17.7586H58.6072V19.7586ZM50.4643 19.7586H46.3929V17.7586H50.4643V19.7586ZM42.3215 19.7586H38.25V17.7586H42.3215V19.7586ZM34.1786 19.7586H30.1072V17.7586H34.1786V19.7586ZM26.0358 19.7586H24V17.7586H26.0358V19.7586ZM24 19.7586C23.3351 19.7586 22.6808 19.8018 22.0396 19.8855L21.7809 17.9023C22.5076 17.8075 23.2484 17.7586 24 17.7586V19.7586ZM18.2584 20.8964C17.0395 21.4019 15.9013 22.0637 14.8688 22.8571L13.6501 21.2713C14.8196 20.3726 16.1097 19.6223 17.4923 19.049L18.2584 20.8964ZM12.0985 25.6274C11.3051 26.6599 10.6433 27.7981 10.1378 29.0171L8.29035 28.251C8.8637 26.8684 9.61398 25.5782 10.5127 24.4087L12.0985 25.6274ZM9.12683 32.7982C9.04319 33.4394 8.99999 34.0937 8.99999 34.7586H6.99999C6.99999 34.007 7.04883 33.2662 7.14363 32.5395L9.12683 32.7982ZM8.99999 34.7586V36.069H6.99999V34.7586H8.99999ZM8.99999 38.6897V40H6.99999V38.6897H8.99999Z" fill="url(#paint0_linear_1424_259)"/>
<defs>
<linearGradient id="paint0_linear_1424_259" x1="210.984" y1="-2.95853" x2="8.00001" y2="-2.95853" gradientUnits="userSpaceOnUse">
<stop stop-color="var(--arrow-end-color, #FF9F0E)"/>
<stop offset="1" stop-color="var(--arrow-start-color, #9C4FFF)"/>
</linearGradient>
</defs>
</svg>
