<svg width="212" height="41" viewBox="0 0 212 41" fill="none" xmlns="http://www.w3.org/2000/svg">
<path d="M203.293 40.7071C203.683 41.0976 204.317 41.0976 204.707 40.7071L211.071 34.3431C211.462 33.9526 211.462 33.3195 211.071 32.9289C210.681 32.5384 210.047 32.5384 209.657 32.9289L204 38.5858L198.343 32.9289C197.953 32.5384 197.319 32.5384 196.929 32.9289C196.538 33.3195 196.538 33.9526 196.929 34.3431L203.293 40.7071ZM0 0V0.689653H2V0H0ZM0 2.06896V2.75861H2V2.06896H0ZM0 2.75861C0 3.51025 0.048842 4.25098 0.143637 4.97771L2.12684 4.71902C2.0432 4.07784 2 3.42352 2 2.75861H0ZM1.29036 9.26627C1.86371 10.6489 2.61399 11.939 3.51269 13.1085L5.09853 11.8898C4.3051 10.8573 3.64328 9.71909 3.13781 8.50017L1.29036 9.26627ZM6.65013 16.2459C7.81961 17.1446 9.10974 17.8949 10.4923 18.4683L11.2584 16.6208C10.0395 16.1153 8.90127 15.4535 7.86878 14.6601L6.65013 16.2459ZM14.7809 19.615C15.5076 19.7098 16.2484 19.7586 17 19.7586V17.7586C16.3351 17.7586 15.6808 17.7154 15.0396 17.6318L14.7809 19.615ZM17 19.7586H19.0357V17.7586H17V19.7586ZM23.1071 19.7586H27.1786V17.7586H23.1071V19.7586ZM31.25 19.7586H35.3214V17.7586H31.25V19.7586ZM39.3929 19.7586H43.4643V17.7586H39.3929V19.7586ZM47.5357 19.7586H51.6071V17.7586H47.5357V19.7586ZM55.6786 19.7586H59.75V17.7586H55.6786V19.7586ZM63.8214 19.7586H67.8929V17.7586H63.8214V19.7586ZM71.9643 19.7586H76.0357V17.7586H71.9643V19.7586ZM80.1071 19.7586H84.1786V17.7586H80.1071V19.7586ZM88.25 19.7586H92.3214V17.7586H88.25V19.7586ZM96.3929 19.7586H100.464V17.7586H96.3929V19.7586ZM104.536 19.7586H108.607V17.7586H104.536V19.7586ZM112.679 19.7586H116.75V17.7586H112.679V19.7586ZM120.821 19.7586H124.893V17.7586H120.821V19.7586ZM128.964 19.7586H133.036V17.7586H128.964V19.7586ZM137.107 19.7586H141.179V17.7586H137.107V19.7586ZM145.25 19.7586H149.321V17.7586H145.25V19.7586ZM153.393 19.7586H157.464V17.7586H153.393V19.7586ZM161.536 19.7586H165.607V17.7586H161.536V19.7586ZM169.679 19.7586H173.75V17.7586H169.679V19.7586ZM177.821 19.7586H181.893V17.7586H177.821V19.7586ZM185.964 19.7586H188V17.7586H185.964V19.7586ZM188 19.7586C188.665 19.7586 189.319 19.8018 189.96 19.8855L190.219 17.9023C189.492 17.8075 188.752 17.7586 188 17.7586V19.7586ZM193.742 20.8964C194.96 21.4019 196.099 22.0637 197.131 22.8571L198.35 21.2713C197.18 20.3726 195.89 19.6223 194.508 19.049L193.742 20.8964ZM199.901 25.6274C200.695 26.6599 201.357 27.7981 201.862 29.0171L203.71 28.251C203.136 26.8684 202.386 25.5782 201.487 24.4087L199.901 25.6274ZM202.873 32.7982C202.957 33.4394 203 34.0937 203 34.7586H205C205 34.007 204.951 33.2663 204.856 32.5395L202.873 32.7982ZM203 34.7586V36.069H205V34.7586H203ZM203 38.6897V40H205V38.6897H203Z" fill="url(#paint0_linear_1392_257)"/>
<defs>
<linearGradient id="paint0_linear_1392_257" x1="1.01632" y1="-2.95853" x2="204" y2="-2.95853" gradientUnits="userSpaceOnUse">
<stop stop-color="var(--arrow-start-color, #9C4FFF)"/>
<stop offset="1" stop-color="var(--arrow-end-color, #FF9F0E)"/>
</linearGradient>
</defs>
</svg>
